ffmpeg version N-95032-g3104100a12 Copyright (c) 2000-2019 the FFmpeg developers
  built with gcc 9.2.1 (GCC) 20190918
  configuration: --enable-gpl --enable-version3 --enable-sdl2 --enable-fontconfig --enable-gnutls --enable-iconv --enable-libass --enable-libdav1d --enable-libbluray --enable-libfreetype --enable-libmp3lame --enable-libopencore-amrnb --enable-libopencore-amrwb --enable-libopenjpeg --enable-libopus --enable-libshine --enable-libsnappy --enable-libsoxr --enable-libtheora --enable-libtwolame --enable-libvpx --enable-libwavpack --enable-libwebp --enable-libx264 --enable-libx265 --enable-libxml2 --enable-libzimg --enable-lzma --enable-zlib --enable-gmp --enable-libvidstab --enable-libvorbis --enable-libvo-amrwbenc --enable-libmysofa --enable-libspeex --enable-libxvid --enable-libaom --enable-libmfx --enable-ffnvcodec --enable-cuvid --enable-d3d11va --enable-nvenc --enable-nvdec --enable-dxva2 --enable-avisynth --enable-libopenmpt --enable-amf
  libavutil      56. 35.100 / 56. 35.100
  libavcodec     58. 58.101 / 58. 58.101
  libavformat    58. 33.100 / 58. 33.100
  libavdevice    58.  9.100 / 58.  9.100
  libavfilter     7. 58.102 /  7. 58.102
  libswscale      5.  6.100 /  5.  6.100
  libswresample   3.  6.100 /  3.  6.100
  libpostproc    55.  6.100 / 55.  6.100
Splitting the commandline.
Reading option '-v' ... matched as option 'v' (set logging level) with argument 'debug'.
Reading option '-nostdin' ... matched as option 'stdin' (enable or disable interaction on standard input) with argument 0.
Reading option '-progress' ... matched as option 'progress' (write program-readable progress information) with argument 'C:/Users/kand8/AppData/Local/Temp/KritaFFmpegProgress.jrOTPv'.
Reading option '-r' ... matched as option 'r' (set frame rate (Hz value, fraction or abbreviation)) with argument '24'.
Reading option '-start_number' ... matched as AVOption 'start_number' with argument '0'.
Reading option '-i' ... matched as input url with argument 'C:/Users/kand8/Documents/School 19-20/Animation/DGM2620/frame%04d.png'.
Reading option '-ss' ... matched as option 'ss' (set the start time offset) with argument '0:0:0.000'.
Reading option '-t' ... matched as option 't' (record or transcode "duration" seconds of audio/video) with argument '0:0:6.250'.
Reading option '-i' ... matched as input url with argument 'C:/Users/kand8/Documents/School 19-20/Animation/DGM2620/5 second club.wav'.
Reading option '-crf' ... matched as AVOption 'crf' with argument '23'.
Reading option '-preset' ... matched as AVOption 'preset' with argument 'medium'.
Reading option '-profile:v' ... matched as option 'profile' (set profile) with argument 'baseline'.
Reading option '-pix_fmt' ... matched as option 'pix_fmt' (set pixel format) with argument 'yuv420p'.
Reading option '-y' ... matched as option 'y' (overwrite output files) with argument '1'.
Reading option 'C:/Users/kand8/Documents/School 19-20/Animation/DGM2620/5 seconds.mp4' ... matched as output url.
Finished splitting the commandline.
Parsing a group of options: global .
Applying option v (set logging level) with argument debug.
Applying option nostdin (enable or disable interaction on standard input) with argument 0.
Applying option progress (write program-readable progress information) with argument C:/Users/kand8/AppData/Local/Temp/KritaFFmpegProgress.jrOTPv.
[file @ 000001d50484b180] Setting default whitelist 'file,crypto'
Applying option y (overwrite output files) with argument 1.
Successfully parsed a group of options.
Parsing a group of options: input url C:/Users/kand8/Documents/School 19-20/Animation/DGM2620/frame%04d.png.
Applying option r (set frame rate (Hz value, fraction or abbreviation)) with argument 24.
Successfully parsed a group of options.
Opening an input file: C:/Users/kand8/Documents/School 19-20/Animation/DGM2620/frame%04d.png.
[image2 @ 000001d50488bd40] Opening 'C:/Users/kand8/Documents/School 19-20/Animation/DGM2620/frame0000.png' for reading
[file @ 000001d50488f340] Setting default whitelist 'file,crypto'
[AVIOContext @ 000001d504897500] Statistics: 350080 bytes read, 0 seeks
[image2 @ 000001d50488bd40] Opening 'C:/Users/kand8/Documents/School 19-20/Animation/DGM2620/frame0001.png' for reading
[file @ 000001d5048ecf80] Setting default whitelist 'file,crypto'
[AVIOContext @ 000001d5048f7000] Statistics: 350080 bytes read, 0 seeks
[image2 @ 000001d50488bd40] Opening 'C:/Users/kand8/Documents/School 19-20/Animation/DGM2620/frame0002.png' for reading
[file @ 000001d5048f7300] Setting default whitelist 'file,crypto'
[AVIOContext @ 000001d5055d58c0] Statistics: 350080 bytes read, 0 seeks
[image2 @ 000001d50488bd40] Opening 'C:/Users/kand8/Documents/School 19-20/Animation/DGM2620/frame0003.png' for reading
[file @ 000001d5048ff5c0] Setting default whitelist 'file,crypto'
[AVIOContext @ 000001d5048ff340] Statistics: 350080 bytes read, 0 seeks
[image2 @ 000001d50488bd40] Opening 'C:/Users/kand8/Documents/School 19-20/Animation/DGM2620/frame0004.png' for reading
[file @ 000001d5048ff7c0] Setting default whitelist 'file,crypto'
[AVIOContext @ 000001d5048ff340] Statistics: 350080 bytes read, 0 seeks
[image2 @ 000001d50488bd40] Opening 'C:/Users/kand8/Documents/School 19-20/Animation/DGM2620/frame0005.png' for reading
[file @ 000001d5048ff980] Setting default whitelist 'file,crypto'
[AVIOContext @ 000001d5048ff340] Statistics: 261154 bytes read, 0 seeks
[image2 @ 000001d50488bd40] Opening 'C:/Users/kand8/Documents/School 19-20/Animation/DGM2620/frame0006.png' for reading
[file @ 000001d5048ffb80] Setting default whitelist 'file,crypto'
[AVIOContext @ 000001d5048ff340] Statistics: 261154 bytes read, 0 seeks
[image2 @ 000001d50488bd40] Opening 'C:/Users/kand8/Documents/School 19-20/Animation/DGM2620/frame0007.png' for reading
[file @ 000001d5048ffd80] Setting default whitelist 'file,crypto'
[AVIOContext @ 000001d5048ff340] Statistics: 261154 bytes read, 0 seeks
[image2 @ 000001d50488bd40] Opening 'C:/Users/kand8/Documents/School 19-20/Animation/DGM2620/frame0008.png' for reading
[file @ 000001d5048fff80] Setting default whitelist 'file,crypto'
[AVIOContext @ 000001d5048ff340] Statistics: 261154 bytes read, 0 seeks
[image2 @ 000001d50488bd40] Opening 'C:/Users/kand8/Documents/School 19-20/Animation/DGM2620/frame0009.png' for reading
[file @ 000001d504900140] Setting default whitelist 'file,crypto'
[AVIOContext @ 000001d5048ff340] Statistics: 261154 bytes read, 0 seeks
[image2 @ 000001d50488bd40] Opening 'C:/Users/kand8/Documents/School 19-20/Animation/DGM2620/frame0010.png' for reading
[file @ 000001d504900340] Setting default whitelist 'file,crypto'
[AVIOContext @ 000001d5048ff340] Statistics: 351071 bytes read, 0 seeks
[image2 @ 000001d50488bd40] Opening 'C:/Users/kand8/Documents/School 19-20/Animation/DGM2620/frame0011.png' for reading
[file @ 000001d504900400] Setting default whitelist 'file,crypto'
[AVIOContext @ 000001d5048ff340] Statistics: 351071 bytes read, 0 seeks
[image2 @ 000001d50488bd40] Opening 'C:/Users/kand8/Documents/School 19-20/Animation/DGM2620/frame0012.png' for reading
[file @ 000001d5058ecf00] Setting default whitelist 'file,crypto'
[AVIOContext @ 000001d504900400] Statistics: 350893 bytes read, 0 seeks
[image2 @ 000001d50488bd40] Opening 'C:/Users/kand8/Documents/School 19-20/Animation/DGM2620/frame0013.png' for reading
[file @ 000001d5058ecf00] Setting default whitelist 'file,crypto'
[AVIOContext @ 000001d504900400] Statistics: 350893 bytes read, 0 seeks
[image2 @ 000001d50488bd40] Opening 'C:/Users/kand8/Documents/School 19-20/Animation/DGM2620/frame0014.png' for reading
[file @ 000001d5058ecf00] Setting default whitelist 'file,crypto'
[AVIOContext @ 000001d504900400] Statistics: 219426 bytes read, 0 seeks
[image2 @ 000001d50488bd40] Opening 'C:/Users/kand8/Documents/School 19-20/Animation/DGM2620/frame0015.png' for reading
[file @ 000001d5058ecf00] Setting default whitelist 'file,crypto'
[AVIOContext @ 000001d504900400] Statistics: 219426 bytes read, 0 seeks
[image2 @ 000001d50488bd40] Opening 'C:/Users/kand8/Documents/School 19-20/Animation/DGM2620/frame0016.png' for reading
[file @ 000001d5058ecf00] Setting default whitelist 'file,crypto'
[AVIOContext @ 000001d504900400] Statistics: 219426 bytes read, 0 seeks
[image2 @ 000001d50488bd40] Probe buffer size limit of 5000000 bytes reached
Input #0, image2, from 'C:/Users/kand8/Documents/School 19-20/Animation/DGM2620/frame%04d.png':
  Duration: 00:00:06.04, start: 0.000000, bitrate: N/A
    Stream #0:0, 17, 1/25: Video: png, 1 reference frame, rgba(pc), 1756x1240 [SAR 11811:11811 DAR 439:310], 0/1, 25 fps, 25 tbr, 25 tbn, 25 tbc
Successfully opened the file.
Parsing a group of options: input url C:/Users/kand8/Documents/School 19-20/Animation/DGM2620/5 second club.wav.
Applying option ss (set the start time offset) with argument 0:0:0.000.
Applying option t (record or transcode "duration" seconds of audio/video) with argument 0:0:6.250.
Successfully parsed a group of options.
Opening an input file: C:/Users/kand8/Documents/School 19-20/Animation/DGM2620/5 second club.wav.
[NULL @ 000001d505a39e00] Opening 'C:/Users/kand8/Documents/School 19-20/Animation/DGM2620/5 second club.wav' for reading
[file @ 000001d5058ecf00] Setting default whitelist 'file,crypto'
[wav @ 000001d505a39e00] Format wav probed with size=2048 and score=99
id3v2 ver:3 flags:00 len:28
[wav @ 000001d505a39e00] Discarding ID3 tags because more suitable tags were found.
[wav @ 000001d505a39e00] Before avformat_find_stream_info() pos: 44 bytes read:98388 seeks:3 nb_streams:1
[wav @ 000001d505a39e00] probing stream 0 pp:32
[wav @ 000001d505a39e00] Probe with size=4096, packets=2469 detected mp3 with score=1
[wav @ 000001d505a39e00] probing stream 0 pp:31
[wav @ 000001d505a39e00] probing stream 0 pp:30
[wav @ 000001d505a39e00] probing stream 0 pp:29
[wav @ 000001d505a39e00] probing stream 0 pp:28
[wav @ 000001d505a39e00] probing stream 0 pp:27
[wav @ 000001d505a39e00] probing stream 0 pp:26
[wav @ 000001d505a39e00] probing stream 0 pp:25
[wav @ 000001d505a39e00] probing stream 0 pp:24
[wav @ 000001d505a39e00] probing stream 0 pp:23
[wav @ 000001d505a39e00] probing stream 0 pp:22
[wav @ 000001d505a39e00] probing stream 0 pp:21
[wav @ 000001d505a39e00] probing stream 0 pp:20
[wav @ 000001d505a39e00] probing stream 0 pp:19
[wav @ 000001d505a39e00] probing stream 0 pp:18
[wav @ 000001d505a39e00] probing stream 0 pp:17
[wav @ 000001d505a39e00] probing stream 0 pp:16
[wav @ 000001d505a39e00] probing stream 0 pp:15
[wav @ 000001d505a39e00] probing stream 0 pp:14
[wav @ 000001d505a39e00] probing stream 0 pp:13
[wav @ 000001d505a39e00] probing stream 0 pp:12
[wav @ 000001d505a39e00] probing stream 0 pp:11
[wav @ 000001d505a39e00] probing stream 0 pp:10
[wav @ 000001d505a39e00] probing stream 0 pp:9
[wav @ 000001d505a39e00] probing stream 0 pp:8
[wav @ 000001d505a39e00] probing stream 0 pp:7
[wav @ 000001d505a39e00] probing stream 0 pp:6
[wav @ 000001d505a39e00] probing stream 0 pp:5
[wav @ 000001d505a39e00] probing stream 0 pp:4
[wav @ 000001d505a39e00] probing stream 0 pp:3
[wav @ 000001d505a39e00] probing stream 0 pp:2
[wav @ 000001d505a39e00] probing stream 0 pp:1
[wav @ 000001d505a39e00] probed stream 0
[wav @ 000001d505a39e00] parser not found for codec pcm_s16le, packets or times may be invalid.
[wav @ 000001d505a39e00] All info found
[wav @ 000001d505a39e00] After avformat_find_stream_info() pos: 204844 bytes read:327764 seeks:3 frames:50
Guessed Channel Layout for Input Stream #1.0 : mono
Input #1, wav, from 'C:/Users/kand8/Documents/School 19-20/Animation/DGM2620/5 second club.wav':
  Metadata:
    title           : :)
    artist          : Tehe
  Duration: 00:00:05.50, bitrate: 705 kb/s
    Stream #1:0, 50, 1/44100: Audio: pcm_s16le ([1][0][0][0] / 0x0001), 44100 Hz, mono, s16, 705 kb/s
Successfully opened the file.
Parsing a group of options: output url C:/Users/kand8/Documents/School 19-20/Animation/DGM2620/5 seconds.mp4.
Applying option profile:v (set profile) with argument baseline.
Applying option pix_fmt (set pixel format) with argument yuv420p.
Successfully parsed a group of options.
Opening an output file: C:/Users/kand8/Documents/School 19-20/Animation/DGM2620/5 seconds.mp4.
[file @ 000001d5048fb300] Setting default whitelist 'file,crypto'
Successfully opened the file.
detected 8 logical cores
Stream mapping:
  Stream #0:0 -> #0:0 (png (native) -> h264 (libx264))
  Stream #1:0 -> #0:1 (pcm_s16le (native) -> aac (native))
cur_dts is invalid st:0 (0) [init:0 i_done:0 finish:0] (this is harmless if it occurs once at the start per stream)
    Last message repeated 22 times
[image2 @ 000001d50488bd40] Thread message queue blocking; consider raising the thread_queue_size option (current value: 8)
cur_dts is invalid st:0 (0) [init:0 i_done:0 finish:0] (this is harmless if it occurs once at the start per stream)
    Last message repeated 6 times
[image2 @ 000001d50488bd40] Opening 'C:/Users/kand8/Documents/School 19-20/Animation/DGM2620/frame0017.png' for reading
[file @ 000001d504900140] Setting default whitelist 'file,crypto'
[AVIOContext @ 000001d5048fff00] Statistics: 232613 bytes read, 0 seeks
[graph 0 input from stream 0:0 @ 000001d5048f71c0] Setting 'video_size' to value '1756x1240'
[graph 0 input from stream 0:0 @ 000001d5048f71c0] Setting 'pix_fmt' to value '26'
[graph 0 input from stream 0:0 @ 000001d5048f71c0] Setting 'time_base' to value '1/24'
[graph 0 input from stream 0:0 @ 000001d5048f71c0] Setting 'pixel_aspect' to value '11811/11811'
[graph 0 input from stream 0:0 @ 000001d5048f71c0] Setting 'sws_param' to value 'flags=2'
[graph 0 input from stream 0:0 @ 000001d5048f71c0] Setting 'frame_rate' to value '24/1'
[graph 0 input from stream 0:0 @ 000001d5048f71c0] w:1756 h:1240 pixfmt:rgba tb:1/24 fr:24/1 sar:11811/11811 sws_param:flags=2
[format @ 000001d5048ff940] Setting 'pix_fmts' to value 'yuv420p'
[auto_scaler_0 @ 000001d50577eec0] Setting 'flags' to value 'bicubic'
[auto_scaler_0 @ 000001d50577eec0] w:iw h:ih flags:'bicubic' interl:0
[format @ 000001d5048ff940] auto-inserting filter 'auto_scaler_0' between the filter 'Parsed_null_0' and the filter 'format'
[AVFilterGraph @ 000001d5058ec6c0] query_formats: 4 queried, 2 merged, 1 already done, 0 delayed
[auto_scaler_0 @ 000001d50577eec0] w:1756 h:1240 fmt:rgba sar:11811/11811 -> w:1756 h:1240 fmt:yuv420p sar:1/1 flags:0x4
[libx264 @ 000001d5048f8180] using mv_range_thread = 40
[libx264 @ 000001d5048f8180] using SAR=1/1
[libx264 @ 000001d5048f8180] using cpu capabilities: MMX2 SSE2Fast SSSE3 SSE4.2 AVX FMA3 BMI2 AVX2
[libx264 @ 000001d5048f8180] profile Constrained Baseline, level 4.2, 4:2:0, 8-bit
[libx264 @ 000001d5048f8180] 264 - core 158 r2984 3759fcb - H.264/MPEG-4 AVC codec - Copyleft 2003-2019 - http://www.videolan.org/x264.html - options: cabac=0 ref=3 deblock=1:0:0 analyse=0x1:0x111 me=hex subme=7 psy=1 psy_rd=1.00:0.00 mixed_ref=1 me_range=16 chroma_me=1 trellis=1 8x8dct=0 cqm=0 deadzone=21,11 fast_pskip=1 chroma_qp_offset=-2 threads=12 lookahead_threads=2 sliced_threads=0 nr=0 decimate=1 interlaced=0 bluray_compat=0 constrained_intra=0 bframes=0 weightp=0 keyint=250 keyint_min=24 scenecut=40 intra_refresh=0 rc_lookahead=40 rc=crf mbtree=1 crf=23.0 qcomp=0.60 qpmin=0 qpmax=69 qpstep=4 ip_ratio=1.40 aq=1:1.00
Clipping frame in rate conversion by 0.000008
cur_dts is invalid st:0 (0) [init:1 i_done:0 finish:0] (this is harmless if it occurs once at the start per stream)
cur_dts is invalid st:1 (0) [init:0 i_done:0 finish:0] (this is harmless if it occurs once at the start per stream)
[graph_1_in_1_0 @ 000001d505a57880] Setting 'time_base' to value '1/44100'
[graph_1_in_1_0 @ 000001d505a57880] Setting 'sample_rate' to value '44100'
[graph_1_in_1_0 @ 000001d505a57880] Setting 'sample_fmt' to value 's16'
[graph_1_in_1_0 @ 000001d505a57880] Setting 'channel_layout' to value '0x4'
[graph_1_in_1_0 @ 000001d505a57880] tb:1/44100 samplefmt:s16 samplerate:44100 chlayout:0x4
[format_out_0_1 @ 000001d505a48380] Setting 'sample_fmts' to value 'fltp'
[format_out_0_1 @ 000001d505a48380] Setting 'sample_rates' to value '96000|88200|64000|48000|44100|32000|24000|22050|16000|12000|11025|8000|7350'
[format_out_0_1 @ 000001d505a48380] auto-inserting filter 'auto_resampler_0' between the filter 'Parsed_anull_0' and the filter 'format_out_0_1'
[AVFilterGraph @ 000001d5058ecb80] query_formats: 5 queried, 9 merged, 3 already done, 0 delayed
[auto_resampler_0 @ 000001d504918e40] [SWR @ 000001d51181d840] Using s16p internally between filters
[auto_resampler_0 @ 000001d504918e40] ch:1 chl:mono fmt:s16 r:44100Hz -> ch:1 chl:mono fmt:fltp r:44100Hz
Output #0, mp4, to 'C:/Users/kand8/Documents/School 19-20/Animation/DGM2620/5 seconds.mp4':
  Metadata:
    encoder         : Lavf58.33.100
    Stream #0:0, 0, 1/12288: Video: h264 (libx264), 1 reference frame (avc1 / 0x31637661), yuv420p(progressive), 1756x1240 [SAR 1:1 DAR 439:310], 0/1, q=-1--1, 24 fps, 12288 tbn, 24 tbc
    Metadata:
      encoder         : Lavc58.58.101 libx264
    Side data:
      cpb: bitrate max/min/avg: 0/0/0 buffer size: 0 vbv_delay: N/A
    Stream #0:1, 0, 1/44100: Audio: aac (LC) (mp4a / 0x6134706D), 44100 Hz, mono, fltp, delay 1024, 69 kb/s
    Metadata:
      encoder         : Lavc58.58.101 aac
cur_dts is invalid st:0 (0) [init:1 i_done:0 finish:0] (this is harmless if it occurs once at the start per stream)
[image2 @ 000001d50488bd40] Opening 'C:/Users/kand8/Documents/School 19-20/Animation/DGM2620/frame0018.png' for reading
[file @ 000001d504919080] Setting default whitelist 'file,crypto'
[AVIOContext @ 000001d504919180] Statistics: 232613 bytes read, 0 seeks
cur_dts is invalid st:0 (0) [init:1 i_done:0 finish:0] (this is harmless if it occurs once at the start per stream)
[image2 @ 000001d50488bd40] Opening 'C:/Users/kand8/Documents/School 19-20/Animation/DGM2620/frame0019.png' for reading
[file @ 000001d5048dedc0] Setting default whitelist 'file,crypto'
[AVIOContext @ 000001d504919080] Statistics: 232613 bytes read, 0 seeks
cur_dts is invalid st:0 (0) [init:1 i_done:0 finish:0] (this is harmless if it occurs once at the start per stream)
[image2 @ 000001d50488bd40] Opening 'C:/Users/kand8/Documents/School 19-20/Animation/DGM2620/frame0020.png' for reading
[file @ 000001d5048de7c0] Setting default whitelist 'file,crypto'
[AVIOContext @ 000001d504919080] Statistics: 228222 bytes read, 0 seeks
cur_dts is invalid st:0 (0) [init:1 i_done:0 finish:0] (this is harmless if it occurs once at the start per stream)
[image2 @ 000001d50488bd40] Opening 'C:/Users/kand8/Documents/School 19-20/Animation/DGM2620/frame0021.png' for reading
[file @ 000001d5048dfac0] Setting default whitelist 'file,crypto'
[AVIOContext @ 000001d504919080] Statistics: 228222 bytes read, 0 seeks
cur_dts is invalid st:0 (0) [init:1 i_done:0 finish:0] (this is harmless if it occurs once at the start per stream)
[image2 @ 000001d50488bd40] Opening 'C:/Users/kand8/Documents/School 19-20/Animation/DGM2620/frame0022.png' for reading
[file @ 000001d5048dfdc0] Setting default whitelist 'file,crypto'
[AVIOContext @ 000001d504919080] Statistics: 228222 bytes read, 0 seeks
cur_dts is invalid st:0 (0) [init:1 i_done:0 finish:0] (this is harmless if it occurs once at the start per stream)
[image2 @ 000001d50488bd40] Opening 'C:/Users/kand8/Documents/School 19-20/Animation/DGM2620/frame0023.png' for reading
[file @ 000001d5048dfbc0] Setting default whitelist 'file,crypto'
[AVIOContext @ 000001d504919080] Statistics: 228222 bytes read, 0 seeks
cur_dts is invalid st:0 (0) [init:1 i_done:0 finish:0] (this is harmless if it occurs once at the start per stream)
[image2 @ 000001d50488bd40] Opening 'C:/Users/kand8/Documents/School 19-20/Animation/DGM2620/frame0024.png' for reading
[file @ 000001d5048deec0] Setting default whitelist 'file,crypto'
[AVIOContext @ 000001d504919080] Statistics: 344177 bytes read, 0 seeks
cur_dts is invalid st:0 (0) [init:1 i_done:0 finish:0] (this is harmless if it occurs once at the start per stream)
[image2 @ 000001d50488bd40] Opening 'C:/Users/kand8/Documents/School 19-20/Animation/DGM2620/frame0025.png' for reading
[file @ 000001d5048df4c0] Setting default whitelist 'file,crypto'
[AVIOContext @ 000001d504919080] Statistics: 344177 bytes read, 0 seeks
cur_dts is invalid st:0 (0) [init:1 i_done:0 finish:0] (this is harmless if it occurs once at the start per stream)
[image2 @ 000001d50488bd40] Opening 'C:/Users/kand8/Documents/School 19-20/Animation/DGM2620/frame0026.png' for reading
[file @ 000001d5048df8c0] Setting default whitelist 'file,crypto'
[AVIOContext @ 000001d504919080] Statistics: 344177 bytes read, 0 seeks
cur_dts is invalid st:0 (0) [init:1 i_done:0 finish:0] (this is harmless if it occurs once at the start per stream)
[image2 @ 000001d50488bd40] Opening 'C:/Users/kand8/Documents/School 19-20/Animation/DGM2620/frame0027.png' for reading
[file @ 000001d5048de2c0] Setting default whitelist 'file,crypto'
[AVIOContext @ 000001d504919080] Statistics: 344177 bytes read, 0 seeks
cur_dts is invalid st:0 (0) [init:1 i_done:0 finish:0] (this is harmless if it occurs once at the start per stream)
[image2 @ 000001d50488bd40] Opening 'C:/Users/kand8/Documents/School 19-20/Animation/DGM2620/frame0028.png' for reading
[file @ 000001d5048df1c0] Setting default whitelist 'file,crypto'
[AVIOContext @ 000001d504919080] Statistics: 229202 bytes read, 0 seeks
cur_dts is invalid st:0 (0) [init:1 i_done:0 finish:0] (this is harmless if it occurs once at the start per stream)
[image2 @ 000001d50488bd40] Opening 'C:/Users/kand8/Documents/School 19-20/Animation/DGM2620/frame0029.png' for reading
[file @ 000001d5048debc0] Setting default whitelist 'file,crypto'
[AVIOContext @ 000001d504919080] Statistics: 229202 bytes read, 0 seeks
cur_dts is invalid st:0 (0) [init:1 i_done:0 finish:0] (this is harmless if it occurs once at the start per stream)
[image2 @ 000001d50488bd40] Opening 'C:/Users/kand8/Documents/School 19-20/Animation/DGM2620/frame0030.png' for reading
[file @ 000001d5048de3c0] Setting default whitelist 'file,crypto'
[AVIOContext @ 000001d504919080] Statistics: 229202 bytes read, 0 seeks
cur_dts is invalid st:0 (0) [init:1 i_done:0 finish:0] (this is harmless if it occurs once at the start per stream)
[image2 @ 000001d50488bd40] Opening 'C:/Users/kand8/Documents/School 19-20/Animation/DGM2620/frame0031.png' for reading
[file @ 000001d5048de9c0] Setting default whitelist 'file,crypto'
[AVIOContext @ 000001d504919080] Statistics: 213098 bytes read, 0 seeks
cur_dts is invalid st:0 (0) [init:1 i_done:0 finish:0] (this is harmless if it occurs once at the start per stream)
[image2 @ 000001d50488bd40] Opening 'C:/Users/kand8/Documents/School 19-20/Animation/DGM2620/frame0032.png' for reading
[file @ 000001d5048df5c0] Setting default whitelist 'file,crypto'
[AVIOContext @ 000001d504919080] Statistics: 213098 bytes read, 0 seeks
cur_dts is invalid st:0 (0) [init:1 i_done:0 finish:0] (this is harmless if it occurs once at the start per stream)
[image2 @ 000001d50488bd40] Opening 'C:/Users/kand8/Documents/School 19-20/Animation/DGM2620/frame0033.png' for reading
[file @ 000001d5048df3c0] Setting default whitelist 'file,crypto'
[AVIOContext @ 000001d504919080] Statistics: 251703 bytes read, 0 seeks
frame=   17 fps=0.0 q=0.0 size=       0kB time=00:00:00.00 bitrate=N/A speed=   0x    cur_dts is invalid st:0 (0) [init:1 i_done:0 finish:0] (this is harmless if it occurs once at the start per stream)
[image2 @ 000001d50488bd40] Opening 'C:/Users/kand8/Documents/School 19-20/Animation/DGM2620/frame0034.png' for reading
[file @ 000001d5048de6c0] Setting default whitelist 'file,crypto'
[AVIOContext @ 000001d504919080] Statistics: 230701 bytes read, 0 seeks
cur_dts is invalid st:0 (0) [init:1 i_done:0 finish:0] (this is harmless if it occurs once at the start per stream)
[image2 @ 000001d50488bd40] Opening 'C:/Users/kand8/Documents/School 19-20/Animation/DGM2620/frame0035.png' for reading
[file @ 000001d5048df0c0] Setting default whitelist 'file,crypto'
[AVIOContext @ 000001d504919080] Statistics: 227014 bytes read, 0 seeks
cur_dts is invalid st:0 (0) [init:1 i_done:0 finish:0] (this is harmless if it occurs once at the start per stream)
[image2 @ 000001d50488bd40] Opening 'C:/Users/kand8/Documents/School 19-20/Animation/DGM2620/frame0036.png' for reading
[file @ 000001d5048df1c0] Setting default whitelist 'file,crypto'
[AVIOContext @ 000001d504919080] Statistics: 318281 bytes read, 0 seeks
cur_dts is invalid st:0 (0) [init:1 i_done:0 finish:0] (this is harmless if it occurs once at the start per stream)
[image2 @ 000001d50488bd40] Opening 'C:/Users/kand8/Documents/School 19-20/Animation/DGM2620/frame0037.png' for reading
[file @ 000001d5048df8c0] Setting default whitelist 'file,crypto'
[AVIOContext @ 000001d504919080] Statistics: 232422 bytes read, 0 seeks
cur_dts is invalid st:0 (0) [init:1 i_done:0 finish:0] (this is harmless if it occurs once at the start per stream)
[image2 @ 000001d50488bd40] Opening 'C:/Users/kand8/Documents/School 19-20/Animation/DGM2620/frame0038.png' for reading
[file @ 000001d5048defc0] Setting default whitelist 'file,crypto'
[AVIOContext @ 000001d504919080] Statistics: 229612 bytes read, 0 seeks
cur_dts is invalid st:0 (0) [init:1 i_done:0 finish:0] (this is harmless if it occurs once at the start per stream)
[image2 @ 000001d50488bd40] Opening 'C:/Users/kand8/Documents/School 19-20/Animation/DGM2620/frame0039.png' for reading
[file @ 000001d5048de9c0] Setting default whitelist 'file,crypto'
[AVIOContext @ 000001d504919080] Statistics: 281501 bytes read, 0 seeks
cur_dts is invalid st:0 (0) [init:1 i_done:0 finish:0] (this is harmless if it occurs once at the start per stream)
[image2 @ 000001d50488bd40] Opening 'C:/Users/kand8/Documents/School 19-20/Animation/DGM2620/frame0040.png' for reading
[file @ 000001d5048df0c0] Setting default whitelist 'file,crypto'
[AVIOContext @ 000001d504919080] Statistics: 251239 bytes read, 0 seeks
cur_dts is invalid st:0 (0) [init:1 i_done:0 finish:0] (this is harmless if it occurs once at the start per stream)
[image2 @ 000001d50488bd40] Opening 'C:/Users/kand8/Documents/School 19-20/Animation/DGM2620/frame0041.png' for reading
[file @ 000001d5048de0c0] Setting default whitelist 'file,crypto'
[AVIOContext @ 000001d504919080] Statistics: 250188 bytes read, 0 seeks
cur_dts is invalid st:0 (0) [init:1 i_done:0 finish:0] (this is harmless if it occurs once at the start per stream)
[image2 @ 000001d50488bd40] Opening 'C:/Users/kand8/Documents/School 19-20/Animation/DGM2620/frame0042.png' for reading
[file @ 000001d5048df4c0] Setting default whitelist 'file,crypto'
[AVIOContext @ 000001d504919080] Statistics: 343220 bytes read, 0 seeks
cur_dts is invalid st:0 (0) [init:1 i_done:0 finish:0] (this is harmless if it occurs once at the start per stream)
[image2 @ 000001d50488bd40] Opening 'C:/Users/kand8/Documents/School 19-20/Animation/DGM2620/frame0043.png' for reading
[file @ 000001d5048df1c0] Setting default whitelist 'file,crypto'
[AVIOContext @ 000001d504919080] Statistics: 327191 bytes read, 0 seeks
cur_dts is invalid st:0 (0) [init:1 i_done:0 finish:0] (this is harmless if it occurs once at the start per stream)
[image2 @ 000001d50488bd40] Opening 'C:/Users/kand8/Documents/School 19-20/Animation/DGM2620/frame0044.png' for reading
[file @ 000001d5048de3c0] Setting default whitelist 'file,crypto'
[AVIOContext @ 000001d504919080] Statistics: 327191 bytes read, 0 seeks
cur_dts is invalid st:0 (0) [init:1 i_done:0 finish:0] (this is harmless if it occurs once at the start per stream)
[image2 @ 000001d50488bd40] Opening 'C:/Users/kand8/Documents/School 19-20/Animation/DGM2620/frame0045.png' for reading
[file @ 000001d5048df1c0] Setting default whitelist 'file,crypto'
[AVIOContext @ 000001d504919080] Statistics: 327191 bytes read, 0 seeks
cur_dts is invalid st:0 (0) [init:1 i_done:0 finish:0] (this is harmless if it occurs once at the start per stream)
[image2 @ 000001d50488bd40] Opening 'C:/Users/kand8/Documents/School 19-20/Animation/DGM2620/frame0046.png' for reading
[file @ 000001d5048df0c0] Setting default whitelist 'file,crypto'
[AVIOContext @ 000001d504919080] Statistics: 317698 bytes read, 0 seeks
cur_dts is invalid st:0 (0) [init:1 i_done:0 finish:0] (this is harmless if it occurs once at the start per stream)
[image2 @ 000001d50488bd40] Opening 'C:/Users/kand8/Documents/School 19-20/Animation/DGM2620/frame0047.png' for reading
[file @ 000001d5048de3c0] Setting default whitelist 'file,crypto'
[AVIOContext @ 000001d504919080] Statistics: 317698 bytes read, 0 seeks
cur_dts is invalid st:0 (0) [init:1 i_done:0 finish:0] (this is harmless if it occurs once at the start per stream)
[image2 @ 000001d50488bd40] Opening 'C:/Users/kand8/Documents/School 19-20/Animation/DGM2620/frame0048.png' for reading
[file @ 000001d5048de8c0] Setting default whitelist 'file,crypto'
[AVIOContext @ 000001d504919080] Statistics: 237903 bytes read, 0 seeks
cur_dts is invalid st:0 (0) [init:1 i_done:0 finish:0] (this is harmless if it occurs once at the start per stream)
[image2 @ 000001d50488bd40] Opening 'C:/Users/kand8/Documents/School 19-20/Animation/DGM2620/frame0049.png' for reading
[file @ 000001d5048ddfc0] Setting default whitelist 'file,crypto'
[AVIOContext @ 000001d504919080] Statistics: 237903 bytes read, 0 seeks
cur_dts is invalid st:0 (0) [init:1 i_done:0 finish:0] (this is harmless if it occurs once at the start per stream)
[image2 @ 000001d50488bd40] Opening 'C:/Users/kand8/Documents/School 19-20/Animation/DGM2620/frame0050.png' for reading
[file @ 000001d5048df0c0] Setting default whitelist 'file,crypto'
[AVIOContext @ 000001d504919080] Statistics: 258889 bytes read, 0 seeks
cur_dts is invalid st:0 (0) [init:1 i_done:0 finish:0] (this is harmless if it occurs once at the start per stream)
[image2 @ 000001d50488bd40] Opening 'C:/Users/kand8/Documents/School 19-20/Animation/DGM2620/frame0051.png' for reading
[file @ 000001d5048df1c0] Setting default whitelist 'file,crypto'
[AVIOContext @ 000001d504919080] Statistics: 258889 bytes read, 0 seeks
cur_dts is invalid st:0 (0) [init:1 i_done:0 finish:0] (this is harmless if it occurs once at the start per stream)
[image2 @ 000001d50488bd40] Opening 'C:/Users/kand8/Documents/School 19-20/Animation/DGM2620/frame0052.png' for reading
[file @ 000001d5048df8c0] Setting default whitelist 'file,crypto'
[AVIOContext @ 000001d504919080] Statistics: 270906 bytes read, 0 seeks
cur_dts is invalid st:0 (0) [init:1 i_done:0 finish:0] (this is harmless if it occurs once at the start per stream)
[image2 @ 000001d50488bd40] Opening 'C:/Users/kand8/Documents/School 19-20/Animation/DGM2620/frame0053.png' for reading
[file @ 000001d5048ddfc0] Setting default whitelist 'file,crypto'
[AVIOContext @ 000001d504919080] Statistics: 270906 bytes read, 0 seeks
cur_dts is invalid st:0 (0) [init:1 i_done:0 finish:0] (this is harmless if it occurs once at the start per stream)
[image2 @ 000001d50488bd40] Opening 'C:/Users/kand8/Documents/School 19-20/Animation/DGM2620/frame0054.png' for reading
[file @ 000001d5048df8c0] Setting default whitelist 'file,crypto'
[AVIOContext @ 000001d504919080] Statistics: 270906 bytes read, 0 seeks
cur_dts is invalid st:0 (0) [init:1 i_done:0 finish:0] (this is harmless if it occurs once at the start per stream)
[image2 @ 000001d50488bd40] Opening 'C:/Users/kand8/Documents/School 19-20/Animation/DGM2620/frame0055.png' for reading
[file @ 000001d5048de2c0] Setting default whitelist 'file,crypto'
[AVIOContext @ 000001d505a39080] Statistics: 249939 bytes read, 0 seeks
cur_dts is invalid st:0 (0) [init:1 i_done:0 finish:0] (this is harmless if it occurs once at the start per stream)
[image2 @ 000001d50488bd40] Opening 'C:/Users/kand8/Documents/School 19-20/Animation/DGM2620/frame0056.png' for reading
[file @ 000001d5048df1c0] Setting default whitelist 'file,crypto'
[AVIOContext @ 000001d505a39080] Statistics: 249939 bytes read, 0 seeks
frame=   40 fps= 39 q=0.0 size=       0kB time=00:00:00.00 bitrate=N/A speed=   0x    cur_dts is invalid st:0 (0) [init:1 i_done:0 finish:0] (this is harmless if it occurs once at the start per stream)
[image2 @ 000001d50488bd40] Opening 'C:/Users/kand8/Documents/School 19-20/Animation/DGM2620/frame0057.png' for reading
[file @ 000001d5048de8c0] Setting default whitelist 'file,crypto'
[AVIOContext @ 000001d505a39080] Statistics: 249939 bytes read, 0 seeks
cur_dts is invalid st:0 (0) [init:1 i_done:0 finish:0] (this is harmless if it occurs once at the start per stream)
[image2 @ 000001d50488bd40] Opening 'C:/Users/kand8/Documents/School 19-20/Animation/DGM2620/frame0058.png' for reading
[file @ 000001d5048df3c0] Setting default whitelist 'file,crypto'
[AVIOContext @ 000001d505a39080] Statistics: 267587 bytes read, 0 seeks
cur_dts is invalid st:0 (0) [init:1 i_done:0 finish:0] (this is harmless if it occurs once at the start per stream)
[image2 @ 000001d50488bd40] Opening 'C:/Users/kand8/Documents/School 19-20/Animation/DGM2620/frame0059.png' for reading
[file @ 000001d5048debc0] Setting default whitelist 'file,crypto'
[AVIOContext @ 000001d505a39080] Statistics: 267587 bytes read, 0 seeks
cur_dts is invalid st:0 (0) [init:1 i_done:0 finish:0] (this is harmless if it occurs once at the start per stream)
[image2 @ 000001d50488bd40] Opening 'C:/Users/kand8/Documents/School 19-20/Animation/DGM2620/frame0060.png' for reading
[file @ 000001d5048ddfc0] Setting default whitelist 'file,crypto'
[AVIOContext @ 000001d5048ec340] Statistics: 267587 bytes read, 0 seeks
cur_dts is invalid st:0 (0) [init:1 i_done:0 finish:0] (this is harmless if it occurs once at the start per stream)
[image2 @ 000001d50488bd40] Opening 'C:/Users/kand8/Documents/School 19-20/Animation/DGM2620/frame0061.png' for reading
[file @ 000001d5048de3c0] Setting default whitelist 'file,crypto'
[AVIOContext @ 000001d5048ec340] Statistics: 271171 bytes read, 0 seeks
cur_dts is invalid st:0 (0) [init:1 i_done:0 finish:0] (this is harmless if it occurs once at the start per stream)
[image2 @ 000001d50488bd40] Opening 'C:/Users/kand8/Documents/School 19-20/Animation/DGM2620/frame0062.png' for reading
[file @ 000001d5048df0c0] Setting default whitelist 'file,crypto'
[AVIOContext @ 000001d505a39080] Statistics: 271171 bytes read, 0 seeks
cur_dts is invalid st:0 (0) [init:1 i_done:0 finish:0] (this is harmless if it occurs once at the start per stream)
[image2 @ 000001d50488bd40] Opening 'C:/Users/kand8/Documents/School 19-20/Animation/DGM2620/frame0063.png' for reading
[file @ 000001d5048df9c0] Setting default whitelist 'file,crypto'
[AVIOContext @ 000001d505a39080] Statistics: 243590 bytes read, 0 seeks
cur_dts is invalid st:0 (0) [init:1 i_done:0 finish:0] (this is harmless if it occurs once at the start per stream)
[image2 @ 000001d50488bd40] Opening 'C:/Users/kand8/Documents/School 19-20/Animation/DGM2620/frame0064.png' for reading
[file @ 000001d5048de9c0] Setting default whitelist 'file,crypto'
[AVIOContext @ 000001d505a39080] Statistics: 243590 bytes read, 0 seeks
cur_dts is invalid st:0 (0) [init:1 i_done:0 finish:0] (this is harmless if it occurs once at the start per stream)
[image2 @ 000001d50488bd40] Opening 'C:/Users/kand8/Documents/School 19-20/Animation/DGM2620/frame0065.png' for reading
[file @ 000001d5048de8c0] Setting default whitelist 'file,crypto'
[AVIOContext @ 000001d505a39080] Statistics: 280215 bytes read, 0 seeks
cur_dts is invalid st:0 (0) [init:1 i_done:0 finish:0] (this is harmless if it occurs once at the start per stream)
[image2 @ 000001d50488bd40] Opening 'C:/Users/kand8/Documents/School 19-20/Animation/DGM2620/frame0066.png' for reading
[file @ 000001d5048df2c0] Setting default whitelist 'file,crypto'
[AVIOContext @ 000001d505a39080] Statistics: 280215 bytes read, 0 seeks
cur_dts is invalid st:0 (0) [init:1 i_done:0 finish:0] (this is harmless if it occurs once at the start per stream)
[image2 @ 000001d50488bd40] Opening 'C:/Users/kand8/Documents/School 19-20/Animation/DGM2620/frame0067.png' for reading
[file @ 000001d5048df9c0] Setting default whitelist 'file,crypto'
[AVIOContext @ 000001d505a39080] Statistics: 246548 bytes read, 0 seeks
cur_dts is invalid st:0 (0) [init:1 i_done:0 finish:0] (this is harmless if it occurs once at the start per stream)
[image2 @ 000001d50488bd40] Opening 'C:/Users/kand8/Documents/School 19-20/Animation/DGM2620/frame0068.png' for reading
[file @ 000001d5048dfcc0] Setting default whitelist 'file,crypto'
[AVIOContext @ 000001d505a39080] Statistics: 246548 bytes read, 0 seeks
cur_dts is invalid st:0 (0) [init:1 i_done:0 finish:0] (this is harmless if it occurs once at the start per stream)
[image2 @ 000001d50488bd40] Opening 'C:/Users/kand8/Documents/School 19-20/Animation/DGM2620/frame0069.png' for reading
[file @ 000001d5048debc0] Setting default whitelist 'file,crypto'
[AVIOContext @ 000001d505a39080] Statistics: 246548 bytes read, 0 seeks
cur_dts is invalid st:0 (0) [init:1 i_done:0 finish:0] (this is harmless if it occurs once at the start per stream)
[image2 @ 000001d50488bd40] Opening 'C:/Users/kand8/Documents/School 19-20/Animation/DGM2620/frame0070.png' for reading
[file @ 000001d5048de2c0] Setting default whitelist 'file,crypto'
[AVIOContext @ 000001d505a39080] Statistics: 227045 bytes read, 0 seeks
[libx264 @ 000001d5048f8180] frame=   0 QP=14.34 NAL=3 Slice:I Poc:0   I:8580 P:0    SKIP:0    size=60937 bytes
[image2 @ 000001d50488bd40] Opening 'C:/Users/kand8/Documents/School 19-20/Animation/DGM2620/frame0071.png' for reading
[file @ 000001d5048dfcc0] Setting default whitelist 'file,crypto'
[AVIOContext @ 000001d5095ced00] Statistics: 227045 bytes read, 0 seeks
[libx264 @ 000001d5048f8180] frame=   1 QP=19.10 NAL=2 Slice:P Poc:2   I:20   P:55   SKIP:8505 size=259 bytes
[image2 @ 000001d50488bd40] Opening 'C:/Users/kand8/Documents/School 19-20/Animation/DGM2620/frame0072.png' for reading
[file @ 000001d5048deac0] Setting default whitelist 'file,crypto'
[AVIOContext @ 000001d5095ced00] Statistics: 295670 bytes read, 0 seeks
[libx264 @ 000001d5048f8180] frame=   2 QP=11.00 NAL=2 Slice:P Poc:4   I:1    P:1    SKIP:8578 size=23 bytes
[image2 @ 000001d50488bd40] Opening 'C:/Users/kand8/Documents/School 19-20/Animation/DGM2620/frame0073.png' for reading
[file @ 000001d5048de4c0] Setting default whitelist 'file,crypto'
[AVIOContext @ 000001d5059ef940] Statistics: 295670 bytes read, 0 seeks
[libx264 @ 000001d5048f8180] frame=   3 QP=11.00 NAL=2 Slice:P Poc:6   I:0    P:0    SKIP:8580 size=12 bytes
[image2 @ 000001d50488bd40] Opening 'C:/Users/kand8/Documents/School 19-20/Animation/DGM2620/frame0074.png' for reading
[file @ 000001d5048de0c0] Setting default whitelist 'file,crypto'
[AVIOContext @ 000001d5059ef800] Statistics: 221366 bytes read, 0 seeks
[libx264 @ 000001d5048f8180] frame=   4 QP=11.00 NAL=2 Slice:P Poc:8   I:0    P:0    SKIP:8580 size=12 bytes
frame=   58 fps= 38 q=28.0 size=       0kB time=00:00:00.23 bitrate=   1.7kbits/s speed=0.153x    [image2 @ 000001d50488bd40] Opening 'C:/Users/kand8/Documents/School 19-20/Animation/DGM2620/frame0075.png' for reading
[file @ 000001d5048de9c0] Setting default whitelist 'file,crypto'
[AVIOContext @ 000001d5059ef800] Statistics: 221366 bytes read, 0 seeks
[libx264 @ 000001d5048f8180] frame=   5 QP=17.82 NAL=2 Slice:P Poc:10  I:945  P:282  SKIP:7353 size=16848 bytes
[image2 @ 000001d50488bd40] Opening 'C:/Users/kand8/Documents/School 19-20/Animation/DGM2620/frame0076.png' for reading
[file @ 000001d5048de1c0] Setting default whitelist 'file,crypto'
[AVIOContext @ 000001d5059ef400] Statistics: 238713 bytes read, 0 seeks
[libx264 @ 000001d5048f8180] frame=   6 QP=11.36 NAL=2 Slice:P Poc:12  I:18   P:18   SKIP:8544 size=125 bytes
[image2 @ 000001d50488bd40] Opening 'C:/Users/kand8/Documents/School 19-20/Animation/DGM2620/frame0077.png' for reading
[file @ 000001d5048df6c0] Setting default whitelist 'file,crypto'
[AVIOContext @ 000001d5059ef800] Statistics: 238713 bytes read, 0 seeks
[libx264 @ 000001d5048f8180] frame=   7 QP=11.82 NAL=2 Slice:P Poc:14  I:3    P:5    SKIP:8572 size=56 bytes
[image2 @ 000001d50488bd40] Opening 'C:/Users/kand8/Documents/School 19-20/Animation/DGM2620/frame0078.png' for reading
[file @ 000001d5048df9c0] Setting default whitelist 'file,crypto'
[AVIOContext @ 000001d5059ef580] Statistics: 232474 bytes read, 0 seeks
[libx264 @ 000001d5048f8180] frame=   8 QP=11.81 NAL=2 Slice:P Poc:16  I:2    P:4    SKIP:8574 size=43 bytes
[image2 @ 000001d50488bd40] Opening 'C:/Users/kand8/Documents/School 19-20/Animation/DGM2620/frame0079.png' for reading
[file @ 000001d5048de5c0] Setting default whitelist 'file,crypto'
[AVIOContext @ 000001d5059ef400] Statistics: 232474 bytes read, 0 seeks
[libx264 @ 000001d5048f8180] frame=   9 QP=10.70 NAL=2 Slice:P Poc:18  I:5    P:4    SKIP:8571 size=68 bytes
[image2 @ 000001d50488bd40] Opening 'C:/Users/kand8/Documents/School 19-20/Animation/DGM2620/frame0080.png' for reading
[file @ 000001d5048de9c0] Setting default whitelist 'file,crypto'
[AVIOContext @ 000001d5059ef580] Statistics: 307495 bytes read, 0 seeks
[libx264 @ 000001d5048f8180] frame=  10 QP=20.06 NAL=2 Slice:P Poc:20  I:1028 P:236  SKIP:7316 size=25799 bytes
[image2 @ 000001d50488bd40] Opening 'C:/Users/kand8/Documents/School 19-20/Animation/DGM2620/frame0081.png' for reading
[file @ 000001d5048df9c0] Setting default whitelist 'file,crypto'
[AVIOContext @ 000001d5059ef940] Statistics: 307495 bytes read, 0 seeks
[libx264 @ 000001d5048f8180] frame=  11 QP=14.13 NAL=2 Slice:P Poc:22  I:19   P:29   SKIP:8532 size=147 bytes
[image2 @ 000001d50488bd40] Opening 'C:/Users/kand8/Documents/School 19-20/Animation/DGM2620/frame0082.png' for reading
[file @ 000001d5048ddfc0] Setting default whitelist 'file,crypto'
[AVIOContext @ 000001d5059ef400] Statistics: 246001 bytes read, 0 seeks
[libx264 @ 000001d5048f8180] frame=  12 QP=14.86 NAL=2 Slice:P Poc:24  I:4    P:18   SKIP:8558 size=227 bytes
[image2 @ 000001d50488bd40] Opening 'C:/Users/kand8/Documents/School 19-20/Animation/DGM2620/frame0083.png' for reading
[file @ 000001d5048defc0] Setting default whitelist 'file,crypto'
[AVIOContext @ 000001d5059ef400] Statistics: 246001 bytes read, 0 seeks
[libx264 @ 000001d5048f8180] frame=  13 QP=10.86 NAL=2 Slice:P Poc:26  I:1    P:1    SKIP:8578 size=25 bytes
[image2 @ 000001d50488bd40] Opening 'C:/Users/kand8/Documents/School 19-20/Animation/DGM2620/frame0084.png' for reading
[file @ 000001d5048de7c0] Setting default whitelist 'file,crypto'
[AVIOContext @ 000001d5059ef580] Statistics: 251168 bytes read, 0 seeks
[libx264 @ 000001d5048f8180] frame=  14 QP=18.55 NAL=2 Slice:P Poc:28  I:909  P:296  SKIP:7375 size=12028 bytes
[image2 @ 000001d50488bd40] Opening 'C:/Users/kand8/Documents/School 19-20/Animation/DGM2620/frame0085.png' for reading
[file @ 000001d5048debc0] Setting default whitelist 'file,crypto'
[AVIOContext @ 000001d5059ef6c0] Statistics: 251168 bytes read, 0 seeks
[libx264 @ 000001d5048f8180] frame=  15 QP=9.13 NAL=2 Slice:P Poc:30  I:22   P:19   SKIP:8539 size=129 bytes
[image2 @ 000001d50488bd40] Opening 'C:/Users/kand8/Documents/School 19-20/Animation/DGM2620/frame0086.png' for reading
[file @ 000001d5048deec0] Setting default whitelist 'file,crypto'
[AVIOContext @ 000001d5059ef400] Statistics: 249809 bytes read, 0 seeks
[libx264 @ 000001d5048f8180] frame=  16 QP=11.19 NAL=2 Slice:P Poc:32  I:2    P:0    SKIP:8578 size=26 bytes
[image2 @ 000001d50488bd40] Opening 'C:/Users/kand8/Documents/School 19-20/Animation/DGM2620/frame0087.png' for reading
[file @ 000001d5048df7c0] Setting default whitelist 'file,crypto'
[AVIOContext @ 000001d5059ef800] Statistics: 249809 bytes read, 0 seeks
[libx264 @ 000001d5048f8180] frame=  17 QP=16.99 NAL=2 Slice:P Poc:34  I:520  P:335  SKIP:7725 size=11642 bytes
[image2 @ 000001d50488bd40] Opening 'C:/Users/kand8/Documents/School 19-20/Animation/DGM2620/frame0088.png' for reading
[file @ 000001d5048dfac0] Setting default whitelist 'file,crypto'
[AVIOContext @ 000001d5059ef400] Statistics: 274722 bytes read, 0 seeks
[libx264 @ 000001d5048f8180] frame=  18 QP=10.71 NAL=2 Slice:P Poc:36  I:13   P:30   SKIP:8537 size=141 bytes
[image2 @ 000001d50488bd40] Opening 'C:/Users/kand8/Documents/School 19-20/Animation/DGM2620/frame0089.png' for reading
[file @ 000001d5048deec0] Setting default whitelist 'file,crypto'
[AVIOContext @ 000001d5059ef800] Statistics: 274722 bytes read, 0 seeks
[libx264 @ 000001d5048f8180] frame=  19 QP=10.33 NAL=2 Slice:P Poc:38  I:3    P:3    SKIP:8574 size=47 bytes
[image2 @ 000001d50488bd40] Opening 'C:/Users/kand8/Documents/School 19-20/Animation/DGM2620/frame0090.png' for reading
[file @ 000001d5048dfbc0] Setting default whitelist 'file,crypto'
[AVIOContext @ 000001d5059ef800] Statistics: 269951 bytes read, 0 seeks
[libx264 @ 000001d5048f8180] frame=  20 QP=19.94 NAL=2 Slice:P Poc:40  I:632  P:234  SKIP:7714 size=11475 bytes
[image2 @ 000001d50488bd40] Opening 'C:/Users/kand8/Documents/School 19-20/Animation/DGM2620/frame0091.png' for reading
[file @ 000001d5048deac0] Setting default whitelist 'file,crypto'
[libx264 @ 000001d5048f8180] frame=  21 QP=11.00 NAL=2 Slice:P Poc:42  I:6    P:34   SKIP:8540 size=117 bytes
[AVIOContext @ 000001d5059ef800] Statistics: 276835 bytes read, 0 seeks
[image2 @ 000001d50488bd40] Opening 'C:/Users/kand8/Documents/School 19-20/Animation/DGM2620/frame0092.png' for reading
[file @ 000001d5048df1c0] Setting default whitelist 'file,crypto'
[AVIOContext @ 000001d5059ef6c0] Statistics: 222807 bytes read, 0 seeks
[libx264 @ 000001d5048f8180] frame=  22 QP=11.80 NAL=2 Slice:P Poc:44  I:1    P:6    SKIP:8573 size=31 bytes
[image2 @ 000001d50488bd40] Opening 'C:/Users/kand8/Documents/School 19-20/Animation/DGM2620/frame0093.png' for reading
[file @ 000001d5048de8c0] Setting default whitelist 'file,crypto'
[AVIOContext @ 000001d5059ef940] Statistics: 227812 bytes read, 0 seeks
[libx264 @ 000001d5048f8180] frame=  23 QP=7.31 NAL=2 Slice:P Poc:46  I:7    P:2    SKIP:8571 size=76 bytes
[image2 @ 000001d50488bd40] Opening 'C:/Users/kand8/Documents/School 19-20/Animation/DGM2620/frame0094.png' for reading
[file @ 000001d5048df7c0] Setting default whitelist 'file,crypto'
[AVIOContext @ 000001d5059ef940] Statistics: 227812 bytes read, 0 seeks
[libx264 @ 000001d5048f8180] frame=  24 QP=19.89 NAL=2 Slice:P Poc:48  I:1039 P:168  SKIP:7373 size=25338 bytes
[image2 @ 000001d50488bd40] Opening 'C:/Users/kand8/Documents/School 19-20/Animation/DGM2620/frame0095.png' for reading
[file @ 000001d5048defc0] Setting default whitelist 'file,crypto'
[AVIOContext @ 000001d5059ef800] Statistics: 248380 bytes read, 0 seeks
[libx264 @ 000001d5048f8180] frame=  25 QP=10.20 NAL=2 Slice:P Poc:50  I:19   P:37   SKIP:8524 size=162 bytes
[image2 @ 000001d50488bd40] Opening 'C:/Users/kand8/Documents/School 19-20/Animation/DGM2620/frame0096.png' for reading
[file @ 000001d5048de9c0] Setting default whitelist 'file,crypto'
[AVIOContext @ 000001d5059ef400] Statistics: 241874 bytes read, 0 seeks
[libx264 @ 000001d5048f8180] frame=  26 QP=11.00 NAL=2 Slice:P Poc:52  I:0    P:0    SKIP:8580 size=12 bytes
[image2 @ 000001d50488bd40] Opening 'C:/Users/kand8/Documents/School 19-20/Animation/DGM2620/frame0097.png' for reading
[file @ 000001d5048dfdc0] Setting default whitelist 'file,crypto'
[AVIOContext @ 000001d5059ef940] Statistics: 241874 bytes read, 0 seeks
[libx264 @ 000001d5048f8180] frame=  27 QP=11.00 NAL=2 Slice:P Poc:54  I:0    P:0    SKIP:8580 size=12 bytes
frame=   81 fps= 40 q=28.0 size=       0kB time=00:00:01.16 bitrate=   0.3kbits/s speed=0.57x    [image2 @ 000001d50488bd40] Opening 'C:/Users/kand8/Documents/School 19-20/Animation/DGM2620/frame0098.png' for reading
[file @ 000001d5048de6c0] Setting default whitelist 'file,crypto'
[AVIOContext @ 000001d5059ef800] Statistics: 249213 bytes read, 0 seeks
[libx264 @ 000001d5048f8180] frame=  28 QP=15.18 NAL=2 Slice:P Poc:56  I:1019 P:231  SKIP:7330 size=12760 bytes
[image2 @ 000001d50488bd40] Opening 'C:/Users/kand8/Documents/School 19-20/Animation/DGM2620/frame0099.png' for reading
[file @ 000001d5048defc0] Setting default whitelist 'file,crypto'
[AVIOContext @ 000001d5059ef580] Statistics: 249213 bytes read, 0 seeks
[libx264 @ 000001d5048f8180] frame=  29 QP=9.99 NAL=2 Slice:P Poc:58  I:25   P:40   SKIP:8515 size=171 bytes
[image2 @ 000001d50488bd40] Opening 'C:/Users/kand8/Documents/School 19-20/Animation/DGM2620/frame0100.png' for reading
[file @ 000001d5048df5c0] Setting default whitelist 'file,crypto'
[AVIOContext @ 000001d5059ef6c0] Statistics: 240150 bytes read, 0 seeks
[libx264 @ 000001d5048f8180] frame=  30 QP=11.55 NAL=2 Slice:P Poc:60  I:0    P:4    SKIP:8576 size=34 bytes
[image2 @ 000001d50488bd40] Opening 'C:/Users/kand8/Documents/School 19-20/Animation/DGM2620/frame0101.png' for reading
[file @ 000001d5048df1c0] Setting default whitelist 'file,crypto'
[AVIOContext @ 000001d5059ef580] Statistics: 241532 bytes read, 0 seeks
[libx264 @ 000001d5048f8180] frame=  31 QP=19.74 NAL=2 Slice:P Poc:62  I:462  P:345  SKIP:7773 size=8024 bytes
[image2 @ 000001d50488bd40] Opening 'C:/Users/kand8/Documents/School 19-20/Animation/DGM2620/frame0102.png' for reading
[file @ 000001d5048df8c0] Setting default whitelist 'file,crypto'
[AVIOContext @ 000001d5059ef800] Statistics: 241532 bytes read, 0 seeks
[libx264 @ 000001d5048f8180] frame=  32 QP=11.74 NAL=2 Slice:P Poc:64  I:24   P:24   SKIP:8532 size=138 bytes
[image2 @ 000001d50488bd40] Opening 'C:/Users/kand8/Documents/School 19-20/Animation/DGM2620/frame0103.png' for reading
[file @ 000001d5048dedc0] Setting default whitelist 'file,crypto'
[AVIOContext @ 000001d5059ef580] Statistics: 241532 bytes read, 0 seeks
[libx264 @ 000001d5048f8180] frame=  33 QP=20.28 NAL=2 Slice:P Poc:66  I:618  P:303  SKIP:7659 size=10307 bytes
[image2 @ 000001d50488bd40] Opening 'C:/Users/kand8/Documents/School 19-20/Animation/DGM2620/frame0104.png' for reading
[file @ 000001d5048df9c0] Setting default whitelist 'file,crypto'
[AVIOContext @ 000001d5059ef800] Statistics: 241532 bytes read, 0 seeks
[libx264 @ 000001d5048f8180] frame=  34 QP=22.41 NAL=2 Slice:P Poc:68  I:631  P:348  SKIP:7601 size=8831 bytes
[image2 @ 000001d50488bd40] Opening 'C:/Users/kand8/Documents/School 19-20/Animation/DGM2620/frame0105.png' for reading
[file @ 000001d5048df9c0] Setting default whitelist 'file,crypto'
[AVIOContext @ 000001d5059ef580] Statistics: 241532 bytes read, 0 seeks
[libx264 @ 000001d5048f8180] frame=  35 QP=21.11 NAL=2 Slice:P Poc:70  I:471  P:395  SKIP:7714 size=8317 bytes
[image2 @ 000001d50488bd40] Opening 'C:/Users/kand8/Documents/School 19-20/Animation/DGM2620/frame0106.png' for reading
[file @ 000001d5048dfcc0] Setting default whitelist 'file,crypto'
[AVIOContext @ 000001d5059ef940] Statistics: 241537 bytes read, 0 seeks
[libx264 @ 000001d5048f8180] frame=  36 QP=22.36 NAL=2 Slice:P Poc:72  I:792  P:362  SKIP:7426 size=15623 bytes
[image2 @ 000001d50488bd40] Opening 'C:/Users/kand8/Documents/School 19-20/Animation/DGM2620/frame0107.png' for reading
[file @ 000001d5048df8c0] Setting default whitelist 'file,crypto'
[AVIOContext @ 000001d5059ef940] Statistics: 241537 bytes read, 0 seeks
[libx264 @ 000001d5048f8180] frame=  37 QP=19.49 NAL=2 Slice:P Poc:74  I:735  P:436  SKIP:7409 size=9359 bytes
[image2 @ 000001d50488bd40] Opening 'C:/Users/kand8/Documents/School 19-20/Animation/DGM2620/frame0108.png' for reading
[file @ 000001d5048dfcc0] Setting default whitelist 'file,crypto'
[AVIOContext @ 000001d5059ef940] Statistics: 241537 bytes read, 0 seeks
[libx264 @ 000001d5048f8180] frame=  38 QP=19.82 NAL=2 Slice:P Poc:76  I:545  P:375  SKIP:7660 size=9333 bytes
[image2 @ 000001d50488bd40] Opening 'C:/Users/kand8/Documents/School 19-20/Animation/DGM2620/frame0109.png' for reading
[file @ 000001d5048deac0] Setting default whitelist 'file,crypto'
[AVIOContext @ 000001d5059ef580] Statistics: 250107 bytes read, 0 seeks
[libx264 @ 000001d5048f8180] frame=  39 QP=23.03 NAL=2 Slice:P Poc:78  I:599  P:439  SKIP:7542 size=12302 bytes
[image2 @ 000001d50488bd40] Opening 'C:/Users/kand8/Documents/School 19-20/Animation/DGM2620/frame0110.png' for reading
[file @ 000001d5048df1c0] Setting default whitelist 'file,crypto'
[AVIOContext @ 000001d5059ef400] Statistics: 250107 bytes read, 0 seeks
[libx264 @ 000001d5048f8180] frame=  40 QP=19.77 NAL=2 Slice:P Poc:80  I:698  P:410  SKIP:7472 size=10380 bytes
[image2 @ 000001d50488bd40] Opening 'C:/Users/kand8/Documents/School 19-20/Animation/DGM2620/frame0111.png' for reading
[file @ 000001d5048dfcc0] Setting default whitelist 'file,crypto'
[AVIOContext @ 000001d5059ef800] Statistics: 251131 bytes read, 0 seeks
[libx264 @ 000001d5048f8180] frame=  41 QP=22.45 NAL=2 Slice:P Poc:82  I:478  P:468  SKIP:7634 size=9881 bytes
[image2 @ 000001d50488bd40] Opening 'C:/Users/kand8/Documents/School 19-20/Animation/DGM2620/frame0112.png' for reading
[file @ 000001d5048dfcc0] Setting default whitelist 'file,crypto'
[AVIOContext @ 000001d5059ef6c0] Statistics: 251131 bytes read, 0 seeks
[libx264 @ 000001d5048f8180] frame=  42 QP=20.47 NAL=2 Slice:P Poc:84  I:1101 P:296  SKIP:7183 size=24871 bytes
[image2 @ 000001d50488bd40] Opening 'C:/Users/kand8/Documents/School 19-20/Animation/DGM2620/frame0113.png' for reading
[file @ 000001d5048debc0] Setting default whitelist 'file,crypto'
[AVIOContext @ 000001d5059ef800] Statistics: 251131 bytes read, 0 seeks
[libx264 @ 000001d5048f8180] frame=  43 QP=16.39 NAL=2 Slice:P Poc:86  I:134  P:177  SKIP:8269 size=2805 bytes
[image2 @ 000001d50488bd40] Opening 'C:/Users/kand8/Documents/School 19-20/Animation/DGM2620/frame0114.png' for reading
[file @ 000001d5048df6c0] Setting default whitelist 'file,crypto'
[AVIOContext @ 000001d5059ef400] Statistics: 250546 bytes read, 0 seeks
[libx264 @ 000001d5048f8180] frame=  44 QP=11.82 NAL=2 Slice:P Poc:88  I:5    P:10   SKIP:8565 size=61 bytes
[image2 @ 000001d50488bd40] Opening 'C:/Users/kand8/Documents/School 19-20/Animation/DGM2620/frame0115.png' for reading
[file @ 000001d5048df5c0] Setting default whitelist 'file,crypto'
[AVIOContext @ 000001d5059ef800] Statistics: 250546 bytes read, 0 seeks
[libx264 @ 000001d5048f8180] frame=  45 QP=10.08 NAL=2 Slice:P Poc:90  I:3    P:2    SKIP:8575 size=32 bytes
frame=   99 fps= 39 q=28.0 size=     256kB time=00:00:01.87 bitrate=1118.6kbits/s speed=0.736x    [image2 @ 000001d50488bd40] Opening 'C:/Users/kand8/Documents/School 19-20/Animation/DGM2620/frame0116.png' for reading
[file @ 000001d5048ddfc0] Setting default whitelist 'file,crypto'
[AVIOContext @ 000001d5059ef940] Statistics: 239835 bytes read, 0 seeks
[libx264 @ 000001d5048f8180] frame=  46 QP=20.09 NAL=2 Slice:P Poc:92  I:341  P:122  SKIP:8117 size=7606 bytes
[image2 @ 000001d50488bd40] Opening 'C:/Users/kand8/Documents/School 19-20/Animation/DGM2620/frame0117.png' for reading
[file @ 000001d5048dfac0] Setting default whitelist 'file,crypto'
[AVIOContext @ 000001d5059ef580] Statistics: 239835 bytes read, 0 seeks
[libx264 @ 000001d5048f8180] frame=  47 QP=9.15 NAL=2 Slice:P Poc:94  I:10   P:12   SKIP:8558 size=75 bytes
[image2 @ 000001d50488bd40] Opening 'C:/Users/kand8/Documents/School 19-20/Animation/DGM2620/frame0118.png' for reading
[file @ 000001d5048deac0] Setting default whitelist 'file,crypto'
[AVIOContext @ 000001d5059ef6c0] Statistics: 239835 bytes read, 0 seeks
[libx264 @ 000001d5048f8180] frame=  48 QP=17.21 NAL=2 Slice:P Poc:96  I:1043 P:279  SKIP:7258 size=13049 bytes
[image2 @ 000001d50488bd40] Opening 'C:/Users/kand8/Documents/School 19-20/Animation/DGM2620/frame0119.png' for reading
[file @ 000001d5048df1c0] Setting default whitelist 'file,crypto'
[AVIOContext @ 000001d5059ef580] Statistics: 236628 bytes read, 0 seeks
[libx264 @ 000001d5048f8180] frame=  49 QP=7.46 NAL=2 Slice:P Poc:98  I:24   P:23   SKIP:8533 size=143 bytes
[image2 @ 000001d50488bd40] Opening 'C:/Users/kand8/Documents/School 19-20/Animation/DGM2620/frame0120.png' for reading
[file @ 000001d5048dfac0] Setting default whitelist 'file,crypto'
[AVIOContext @ 000001d5059ef940] Statistics: 236628 bytes read, 0 seeks
[libx264 @ 000001d5048f8180] frame=  50 QP=20.22 NAL=2 Slice:P Poc:100 I:614  P:342  SKIP:7624 size=13562 bytes
[image2 @ 000001d50488bd40] Opening 'C:/Users/kand8/Documents/School 19-20/Animation/DGM2620/frame0121.png' for reading
[file @ 000001d5048de4c0] Setting default whitelist 'file,crypto'
[AVIOContext @ 000001d5059ef6c0] Statistics: 251893 bytes read, 0 seeks
[libx264 @ 000001d5048f8180] frame=  51 QP=11.72 NAL=2 Slice:P Poc:102 I:19   P:23   SKIP:8538 size=123 bytes
[image2 @ 000001d50488bd40] Opening 'C:/Users/kand8/Documents/School 19-20/Animation/DGM2620/frame0122.png' for reading
[file @ 000001d5048df1c0] Setting default whitelist 'file,crypto'
[AVIOContext @ 000001d5059ef580] Statistics: 251893 bytes read, 0 seeks
[libx264 @ 000001d5048f8180] frame=  52 QP=20.93 NAL=2 Slice:P Poc:104 I:246  P:190  SKIP:8144 size=7102 bytes
[image2 @ 000001d50488bd40] Opening 'C:/Users/kand8/Documents/School 19-20/Animation/DGM2620/frame0123.png' for reading
[file @ 000001d5048df1c0] Setting default whitelist 'file,crypto'
[AVIOContext @ 000001d5059ef940] Statistics: 251893 bytes read, 0 seeks
[libx264 @ 000001d5048f8180] frame=  53 QP=11.09 NAL=2 Slice:P Poc:106 I:8    P:13   SKIP:8559 size=73 bytes
[image2 @ 000001d50488bd40] Opening 'C:/Users/kand8/Documents/School 19-20/Animation/DGM2620/frame0124.png' for reading
[file @ 000001d5048df7c0] Setting default whitelist 'file,crypto'
[AVIOContext @ 000001d5059ef400] Statistics: 237895 bytes read, 0 seeks
[libx264 @ 000001d5048f8180] frame=  54 QP=11.81 NAL=2 Slice:P Poc:108 I:0    P:1    SKIP:8579 size=17 bytes
[image2 @ 000001d50488bd40] Opening 'C:/Users/kand8/Documents/School 19-20/Animation/DGM2620/frame0125.png' for reading
[file @ 000001d5048df0c0] Setting default whitelist 'file,crypto'
[AVIOContext @ 000001d5059ef6c0] Statistics: 237895 bytes read, 0 seeks
[libx264 @ 000001d5048f8180] frame=  55 QP=18.93 NAL=2 Slice:P Poc:110 I:773  P:223  SKIP:7584 size=14141 bytes
[image2 @ 000001d50488bd40] Opening 'C:/Users/kand8/Documents/School 19-20/Animation/DGM2620/frame0126.png' for reading
[file @ 000001d5048df3c0] Setting default whitelist 'file,crypto'
[AVIOContext @ 000001d5059ef6c0] Statistics: 304418 bytes read, 0 seeks
[libx264 @ 000001d5048f8180] frame=  56 QP=9.62 NAL=2 Slice:P Poc:112 I:20   P:27   SKIP:8533 size=147 bytes
[image2 @ 000001d50488bd40] Opening 'C:/Users/kand8/Documents/School 19-20/Animation/DGM2620/frame0127.png' for reading
[file @ 000001d5048df9c0] Setting default whitelist 'file,crypto'
[AVIOContext @ 000001d5059ef800] Statistics: 304418 bytes read, 0 seeks
[libx264 @ 000001d5048f8180] frame=  57 QP=11.78 NAL=2 Slice:P Poc:114 I:0    P:5    SKIP:8575 size=30 bytes
[image2 @ 000001d50488bd40] Opening 'C:/Users/kand8/Documents/School 19-20/Animation/DGM2620/frame0128.png' for reading
[file @ 000001d5048df8c0] Setting default whitelist 'file,crypto'
[AVIOContext @ 000001d5059ef940] Statistics: 304418 bytes read, 0 seeks
[libx264 @ 000001d5048f8180] frame=  58 QP=20.56 NAL=2 Slice:P Poc:116 I:782  P:287  SKIP:7511 size=16105 bytes
[image2 @ 000001d50488bd40] Opening 'C:/Users/kand8/Documents/School 19-20/Animation/DGM2620/frame0129.png' for reading
[file @ 000001d5048dfcc0] Setting default whitelist 'file,crypto'
[AVIOContext @ 000001d5059ef940] Statistics: 304418 bytes read, 0 seeks
[libx264 @ 000001d5048f8180] frame=  59 QP=12.58 NAL=2 Slice:P Poc:118 I:9    P:20   SKIP:8551 size=97 bytes
[image2 @ 000001d50488bd40] Opening 'C:/Users/kand8/Documents/School 19-20/Animation/DGM2620/frame0130.png' for reading
[file @ 000001d5048deac0] Setting default whitelist 'file,crypto'
[AVIOContext @ 000001d5059ef580] Statistics: 304418 bytes read, 0 seeks
[libx264 @ 000001d5048f8180] frame=  60 QP=11.00 NAL=2 Slice:P Poc:120 I:0    P:1    SKIP:8579 size=16 bytes
[image2 @ 000001d50488bd40] Opening 'C:/Users/kand8/Documents/School 19-20/Animation/DGM2620/frame0131.png' for reading
[file @ 000001d5048df1c0] Setting default whitelist 'file,crypto'
[AVIOContext @ 000001d5059ef400] Statistics: 304418 bytes read, 0 seeks
[libx264 @ 000001d5048f8180] frame=  61 QP=16.28 NAL=2 Slice:P Poc:122 I:967  P:154  SKIP:7459 size=13833 bytes
[image2 @ 000001d50488bd40] Opening 'C:/Users/kand8/Documents/School 19-20/Animation/DGM2620/frame0132.png' for reading
[file @ 000001d5048df2c0] Setting default whitelist 'file,crypto'
[AVIOContext @ 000001d5059ef400] Statistics: 304418 bytes read, 0 seeks
[libx264 @ 000001d5048f8180] frame=  62 QP=11.73 NAL=2 Slice:P Poc:124 I:8    P:31   SKIP:8541 size=118 bytes
[image2 @ 000001d50488bd40] Opening 'C:/Users/kand8/Documents/School 19-20/Animation/DGM2620/frame0133.png' for reading
[file @ 000001d5048de6c0] Setting default whitelist 'file,crypto'
[AVIOContext @ 000001d5059ef940] Statistics: 304418 bytes read, 0 seeks
[libx264 @ 000001d5048f8180] frame=  63 QP=16.00 NAL=2 Slice:P Poc:126 I:717  P:325  SKIP:7538 size=11114 bytes
[image2 @ 000001d50488bd40] Opening 'C:/Users/kand8/Documents/School 19-20/Animation/DGM2620/frame0134.png' for reading
[file @ 000001d5048de7c0] Setting default whitelist 'file,crypto'
[AVIOContext @ 000001d5059ef6c0] Statistics: 202432 bytes read, 0 seeks
[libx264 @ 000001d5048f8180] frame=  64 QP=10.05 NAL=2 Slice:P Poc:128 I:20   P:33   SKIP:8527 size=145 bytes
[image2 @ 000001d50488bd40] Opening 'C:/Users/kand8/Documents/School 19-20/Animation/DGM2620/frame0135.png' for reading
[file @ 000001d5048df6c0] Setting default whitelist 'file,crypto'
[AVIOContext @ 000001d5059ef580] Statistics: 202432 bytes read, 0 seeks
[libx264 @ 000001d5048f8180] frame=  65 QP=16.74 NAL=2 Slice:P Poc:130 I:793  P:284  SKIP:7503 size=13753 bytes
frame=  119 fps= 39 q=28.0 size=     256kB time=00:00:02.70 bitrate= 774.5kbits/s speed=0.888x    [image2 @ 000001d50488bd40] Opening 'C:/Users/kand8/Documents/School 19-20/Animation/DGM2620/frame0136.png' for reading
[file @ 000001d5048de6c0] Setting default whitelist 'file,crypto'
[AVIOContext @ 000001d5059ef6c0] Statistics: 202432 bytes read, 0 seeks
[libx264 @ 000001d5048f8180] frame=  66 QP=10.98 NAL=2 Slice:P Poc:132 I:15   P:35   SKIP:8530 size=144 bytes
[image2 @ 000001d50488bd40] Opening 'C:/Users/kand8/Documents/School 19-20/Animation/DGM2620/frame0137.png' for reading
[file @ 000001d5048ddfc0] Setting default whitelist 'file,crypto'
[AVIOContext @ 000001d5059ef580] Statistics: 202432 bytes read, 0 seeks
[libx264 @ 000001d5048f8180] frame=  67 QP=14.65 NAL=2 Slice:P Poc:134 I:892  P:216  SKIP:7472 size=12688 bytes
[image2 @ 000001d50488bd40] Opening 'C:/Users/kand8/Documents/School 19-20/Animation/DGM2620/frame0138.png' for reading
[file @ 000001d5048ddfc0] Setting default whitelist 'file,crypto'
[AVIOContext @ 000001d5059ef6c0] Statistics: 202432 bytes read, 0 seeks
[libx264 @ 000001d5048f8180] frame=  68 QP=11.74 NAL=2 Slice:P Poc:136 I:17   P:27   SKIP:8536 size=141 bytes
[image2 @ 000001d50488bd40] Opening 'C:/Users/kand8/Documents/School 19-20/Animation/DGM2620/frame0139.png' for reading
[file @ 000001d5048df1c0] Setting default whitelist 'file,crypto'
[AVIOContext @ 000001d5059ef580] Statistics: 202432 bytes read, 0 seeks
[libx264 @ 000001d5048f8180] frame=  69 QP=11.65 NAL=2 Slice:P Poc:138 I:0    P:4    SKIP:8576 size=33 bytes
[image2 @ 000001d50488bd40] Opening 'C:/Users/kand8/Documents/School 19-20/Animation/DGM2620/frame0140.png' for reading
[file @ 000001d5048df9c0] Setting default whitelist 'file,crypto'
[AVIOContext @ 000001d5059ef940] Statistics: 220440 bytes read, 0 seeks
[libx264 @ 000001d5048f8180] frame=  70 QP=16.09 NAL=2 Slice:P Poc:140 I:623  P:230  SKIP:7727 size=9665 bytes
[image2 @ 000001d50488bd40] Opening 'C:/Users/kand8/Documents/School 19-20/Animation/DGM2620/frame0141.png' for reading
[file @ 000001d5048deac0] Setting default whitelist 'file,crypto'
[AVIOContext @ 000001d5059ef580] Statistics: 220440 bytes read, 0 seeks
[libx264 @ 000001d5048f8180] frame=  71 QP=9.18 NAL=2 Slice:P Poc:142 I:21   P:23   SKIP:8536 size=132 bytes
[image2 @ 000001d50488bd40] Opening 'C:/Users/kand8/Documents/School 19-20/Animation/DGM2620/frame0142.png' for reading
[file @ 000001d5048defc0] Setting default whitelist 'file,crypto'
[AVIOContext @ 000001d5059ef800] Statistics: 220440 bytes read, 0 seeks
[libx264 @ 000001d5048f8180] frame=  72 QP=19.68 NAL=2 Slice:P Poc:144 I:830  P:248  SKIP:7502 size=17153 bytes
[image2 @ 000001d50488bd40] Opening 'C:/Users/kand8/Documents/School 19-20/Animation/DGM2620/frame0143.png' for reading
[file @ 000001d5048df2c0] Setting default whitelist 'file,crypto'
[AVIOContext @ 000001d5059ef400] Statistics: 220440 bytes read, 0 seeks
[libx264 @ 000001d5048f8180] frame=  73 QP=8.91 NAL=2 Slice:P Poc:146 I:18   P:37   SKIP:8525 size=151 bytes
[image2 @ 000001d50488bd40] Opening 'C:/Users/kand8/Documents/School 19-20/Animation/DGM2620/frame0144.png' for reading
[file @ 000001d5048df2c0] Setting default whitelist 'file,crypto'
[AVIOContext @ 000001d5059ef580] Statistics: 220440 bytes read, 0 seeks
[libx264 @ 000001d5048f8180] frame=  74 QP=16.79 NAL=2 Slice:P Poc:148 I:765  P:337  SKIP:7478 size=9420 bytes
[image2 @ 000001d50488bd40] Opening 'C:/Users/kand8/Documents/School 19-20/Animation/DGM2620/frame0145.png' for reading
[file @ 000001d5048df6c0] Setting default whitelist 'file,crypto'
[AVIOContext @ 000001d5059ef800] Statistics: 220440 bytes read, 0 seeks
[libx264 @ 000001d5048f8180] frame=  75 QP=8.63 NAL=2 Slice:P Poc:150 I:21   P:33   SKIP:8526 size=158 bytes
[image2 @ 000001d50488bd40] Opening 'C:/Users/kand8/Documents/School 19-20/Animation/DGM2620/frame0146.png' for reading
[file @ 000001d5048df9c0] Setting default whitelist 'file,crypto'
[AVIOContext @ 000001d5059ef400] Statistics: 219476 bytes read, 0 seeks
[libx264 @ 000001d5048f8180] frame=  76 QP=20.85 NAL=2 Slice:P Poc:152 I:547  P:310  SKIP:7723 size=9478 bytes
[image2 @ 000001d50488bd40] Opening 'C:/Users/kand8/Documents/School 19-20/Animation/DGM2620/frame0147.png' for reading
[file @ 000001d5048de6c0] Setting default whitelist 'file,crypto'
[AVIOContext @ 000001d5059ef800] Statistics: 219476 bytes read, 0 seeks
[libx264 @ 000001d5048f8180] frame=  77 QP=9.14 NAL=2 Slice:P Poc:154 I:18   P:25   SKIP:8537 size=124 bytes
[image2 @ 000001d50488bd40] Opening 'C:/Users/kand8/Documents/School 19-20/Animation/DGM2620/frame0148.png' for reading
[file @ 000001d5048df1c0] Setting default whitelist 'file,crypto'
[AVIOContext @ 000001d5059ef580] Statistics: 219476 bytes read, 0 seeks
[libx264 @ 000001d5048f8180] frame=  78 QP=21.23 NAL=2 Slice:P Poc:156 I:491  P:382  SKIP:7707 size=9457 bytes
[image2 @ 000001d50488bd40] Opening 'C:/Users/kand8/Documents/School 19-20/Animation/DGM2620/frame0149.png' for reading
[file @ 000001d5048de8c0] Setting default whitelist 'file,crypto'
[AVIOContext @ 000001d5059ef940] Statistics: 219476 bytes read, 0 seeks
[libx264 @ 000001d5048f8180] frame=  79 QP=8.47 NAL=2 Slice:P Poc:158 I:15   P:42   SKIP:8523 size=156 bytes
[image2 @ 000001d50488bd40] Opening 'C:/Users/kand8/Documents/School 19-20/Animation/DGM2620/frame0150.png' for reading
[file @ 000001d5048dfcc0] Setting default whitelist 'file,crypto'
[AVIOContext @ 000001d5059ef6c0] Statistics: 219476 bytes read, 0 seeks
[libx264 @ 000001d5048f8180] frame=  80 QP=22.16 NAL=2 Slice:P Poc:160 I:843  P:281  SKIP:7456 size=16432 bytes
[libx264 @ 000001d5048f8180] frame=  81 QP=10.22 NAL=2 Slice:P Poc:162 I:21   P:43   SKIP:8516 size=167 bytes
[libx264 @ 000001d5048f8180] frame=  82 QP=20.61 NAL=2 Slice:P Poc:164 I:808  P:318  SKIP:7454 size=11198 bytes
[libx264 @ 000001d5048f8180] frame=  83 QP=10.92 NAL=2 Slice:P Poc:166 I:21   P:33   SKIP:8526 size=178 bytes
[libx264 @ 000001d5048f8180] frame=  84 QP=21.02 NAL=2 Slice:P Poc:168 I:704  P:309  SKIP:7567 size=11667 bytes
[libx264 @ 000001d5048f8180] frame=  85 QP=8.26 NAL=2 Slice:P Poc:170 I:19   P:24   SKIP:8537 size=121 bytes
[libx264 @ 000001d5048f8180] frame=  86 QP=20.99 NAL=2 Slice:P Poc:172 I:587  P:381  SKIP:7612 size=11121 bytes
[libx264 @ 000001d5048f8180] frame=  87 QP=10.84 NAL=2 Slice:P Poc:174 I:30   P:34   SKIP:8516 size=187 bytes
frame=  141 fps= 40 q=28.0 size=     512kB time=00:00:03.66 bitrate=1143.4kbits/s speed=1.03x    [libx264 @ 000001d5048f8180] frame=  88 QP=21.05 NAL=2 Slice:P Poc:176 I:863  P:264  SKIP:7453 size=16925 bytes
[libx264 @ 000001d5048f8180] frame=  89 QP=12.49 NAL=2 Slice:P Poc:178 I:19   P:21   SKIP:8540 size=121 bytes
[libx264 @ 000001d5048f8180] frame=  90 QP=15.63 NAL=2 Slice:P Poc:180 I:36   P:76   SKIP:8468 size=826 bytes
[libx264 @ 000001d5048f8180] frame=  91 QP=18.16 NAL=2 Slice:P Poc:182 I:160  P:67   SKIP:8353 size=3536 bytes
[libx264 @ 000001d5048f8180] frame=  92 QP=18.12 NAL=2 Slice:P Poc:184 I:703  P:319  SKIP:7558 size=11985 bytes
[libx264 @ 000001d5048f8180] frame=  93 QP=19.62 NAL=2 Slice:P Poc:186 I:95   P:131  SKIP:8354 size=2389 bytes
[libx264 @ 000001d5048f8180] frame=  94 QP=11.05 NAL=2 Slice:P Poc:188 I:2    P:10   SKIP:8568 size=55 bytes
[libx264 @ 000001d5048f8180] frame=  95 QP=19.50 NAL=2 Slice:P Poc:190 I:624  P:283  SKIP:7673 size=13220 bytes
[libx264 @ 000001d5048f8180] frame=  96 QP=19.12 NAL=2 Slice:P Poc:192 I:155  P:222  SKIP:8203 size=3898 bytes
[libx264 @ 000001d5048f8180] frame=  97 QP=10.25 NAL=2 Slice:P Poc:194 I:6    P:14   SKIP:8560 size=69 bytes
[out_0_0 @ 000001d5048ffd00] EOF on sink link out_0_0:default.
[out_0_1 @ 000001d505a57a80] EOF on sink link out_0_1:default.
No more output streams to write to, finishing.
[libx264 @ 000001d5048f8180] frame=  98 QP=19.32 NAL=2 Slice:P Poc:196 I:101  P:242  SKIP:8237 size=2836 bytes
[libx264 @ 000001d5048f8180] frame=  99 QP=9.28 NAL=2 Slice:P Poc:198 I:12   P:12   SKIP:8556 size=97 bytes
[libx264 @ 000001d5048f8180] frame= 100 QP=17.93 NAL=2 Slice:P Poc:200 I:640  P:326  SKIP:7614 size=15724 bytes
[libx264 @ 000001d5048f8180] frame= 101 QP=18.96 NAL=2 Slice:P Poc:202 I:71   P:152  SKIP:8357 size=2598 bytes
[libx264 @ 000001d5048f8180] frame= 102 QP=11.00 NAL=2 Slice:P Poc:204 I:2    P:4    SKIP:8574 size=33 bytes
[libx264 @ 000001d5048f8180] frame= 103 QP=11.00 NAL=2 Slice:P Poc:206 I:0    P:0    SKIP:8580 size=12 bytes
[libx264 @ 000001d5048f8180] frame= 104 QP=11.00 NAL=2 Slice:P Poc:208 I:0    P:0    SKIP:8580 size=12 bytes
[libx264 @ 000001d5048f8180] frame= 105 QP=11.00 NAL=2 Slice:P Poc:210 I:0    P:0    SKIP:8580 size=12 bytes
[libx264 @ 000001d5048f8180] frame= 106 QP=18.40 NAL=2 Slice:P Poc:212 I:111  P:113  SKIP:8356 size=2545 bytes
[libx264 @ 000001d5048f8180] frame= 107 QP=11.15 NAL=2 Slice:P Poc:214 I:3    P:8    SKIP:8569 size=51 bytes
[libx264 @ 000001d5048f8180] frame= 108 QP=8.90 NAL=2 Slice:P Poc:216 I:3    P:1    SKIP:8576 size=35 bytes
[libx264 @ 000001d5048f8180] frame= 109 QP=19.85 NAL=2 Slice:P Poc:218 I:703  P:259  SKIP:7618 size=14644 bytes
[libx264 @ 000001d5048f8180] frame= 110 QP=11.92 NAL=2 Slice:P Poc:220 I:16   P:19   SKIP:8545 size=102 bytes
[libx264 @ 000001d5048f8180] frame= 111 QP=16.18 NAL=2 Slice:P Poc:222 I:83   P:165  SKIP:8332 size=2646 bytes
[libx264 @ 000001d5048f8180] frame= 112 QP=9.49 NAL=2 Slice:P Poc:224 I:1    P:11   SKIP:8568 size=53 bytes
[libx264 @ 000001d5048f8180] frame= 113 QP=11.00 NAL=2 Slice:P Poc:226 I:0    P:0    SKIP:8580 size=12 bytes
[libx264 @ 000001d5048f8180] frame= 114 QP=17.36 NAL=2 Slice:P Poc:228 I:90   P:157  SKIP:8333 size=2741 bytes
[libx264 @ 000001d5048f8180] frame= 115 QP=7.42 NAL=2 Slice:P Poc:230 I:9    P:7    SKIP:8564 size=54 bytes
[libx264 @ 000001d5048f8180] frame= 116 QP=20.01 NAL=2 Slice:P Poc:232 I:650  P:284  SKIP:7646 size=14648 bytes
[libx264 @ 000001d5048f8180] frame= 117 QP=11.12 NAL=2 Slice:P Poc:234 I:13   P:10   SKIP:8557 size=81 bytes
[libx264 @ 000001d5048f8180] frame= 118 QP=8.20 NAL=2 Slice:P Poc:236 I:2    P:0    SKIP:8578 size=20 bytes
[libx264 @ 000001d5048f8180] frame= 119 QP=17.70 NAL=2 Slice:P Poc:238 I:104  P:113  SKIP:8363 size=2574 bytes
[libx264 @ 000001d5048f8180] frame= 120 QP=10.52 NAL=2 Slice:P Poc:240 I:2    P:10   SKIP:8568 size=59 bytes
[libx264 @ 000001d5048f8180] frame= 121 QP=20.68 NAL=2 Slice:P Poc:242 I:689  P:255  SKIP:7636 size=13073 bytes
[libx264 @ 000001d5048f8180] frame= 122 QP=10.00 NAL=2 Slice:P Poc:244 I:20   P:52   SKIP:8508 size=182 bytes
[libx264 @ 000001d5048f8180] frame= 123 QP=11.10 NAL=2 Slice:P Poc:246 I:1    P:3    SKIP:8576 size=31 bytes
[libx264 @ 000001d5048f8180] frame= 124 QP=19.23 NAL=2 Slice:P Poc:248 I:616  P:283  SKIP:7681 size=12633 bytes
[libx264 @ 000001d5048f8180] frame= 125 QP=8.27 NAL=2 Slice:P Poc:250 I:24   P:21   SKIP:8535 size=146 bytes
[libx264 @ 000001d5048f8180] frame= 126 QP=20.00 NAL=2 Slice:P Poc:252 I:847  P:274  SKIP:7459 size=22853 bytes
[libx264 @ 000001d5048f8180] frame= 127 QP=13.57 NAL=2 Slice:P Poc:254 I:12   P:20   SKIP:8548 size=119 bytes
[libx264 @ 000001d5048f8180] frame= 128 QP=11.00 NAL=2 Slice:P Poc:256 I:0    P:1    SKIP:8579 size=16 bytes
[libx264 @ 000001d5048f8180] frame= 129 QP=11.00 NAL=2 Slice:P Poc:258 I:0    P:0    SKIP:8580 size=12 bytes
[libx264 @ 000001d5048f8180] frame= 130 QP=11.00 NAL=2 Slice:P Poc:260 I:1    P:0    SKIP:8579 size=16 bytes
[libx264 @ 000001d5048f8180] frame= 131 QP=9.67 NAL=2 Slice:P Poc:262 I:1    P:3    SKIP:8576 size=34 bytes
[libx264 @ 000001d5048f8180] frame= 132 QP=8.64 NAL=2 Slice:P Poc:264 I:1    P:0    SKIP:8579 size=17 bytes
[libx264 @ 000001d5048f8180] frame= 133 QP=6.03 NAL=2 Slice:P Poc:266 I:2    P:0    SKIP:8578 size=20 bytes
[libx264 @ 000001d5048f8180] frame= 134 QP=15.38 NAL=2 Slice:P Poc:268 I:737  P:309  SKIP:7534 size=10543 bytes
[libx264 @ 000001d5048f8180] frame= 135 QP=10.44 NAL=2 Slice:P Poc:270 I:14   P:15   SKIP:8551 size=105 bytes
[libx264 @ 000001d5048f8180] frame= 136 QP=8.36 NAL=2 Slice:P Poc:272 I:1    P:2    SKIP:8577 size=26 bytes
[libx264 @ 000001d5048f8180] frame= 137 QP=8.44 NAL=2 Slice:P Poc:274 I:1    P:0    SKIP:8579 size=17 bytes
[libx264 @ 000001d5048f8180] frame= 138 QP=7.26 NAL=2 Slice:P Poc:276 I:1    P:1    SKIP:8578 size=24 bytes
[libx264 @ 000001d5048f8180] frame= 139 QP=9.23 NAL=2 Slice:P Poc:278 I:1    P:3    SKIP:8576 size=42 bytes
[libx264 @ 000001d5048f8180] frame= 140 QP=19.27 NAL=2 Slice:P Poc:280 I:409  P:405  SKIP:7766 size=11582 bytes
[libx264 @ 000001d5048f8180] frame= 141 QP=13.07 NAL=2 Slice:P Poc:282 I:10   P:19   SKIP:8551 size=108 bytes
[libx264 @ 000001d5048f8180] frame= 142 QP=11.00 NAL=2 Slice:P Poc:284 I:0    P:1    SKIP:8579 size=16 bytes
[libx264 @ 000001d5048f8180] frame= 143 QP=11.00 NAL=2 Slice:P Poc:286 I:0    P:0    SKIP:8580 size=12 bytes
[libx264 @ 000001d5048f8180] frame= 144 QP=11.00 NAL=2 Slice:P Poc:288 I:0    P:0    SKIP:8580 size=12 bytes
[libx264 @ 000001d5048f8180] frame= 145 QP=8.81 NAL=2 Slice:P Poc:290 I:1    P:0    SKIP:8579 size=17 bytes
[libx264 @ 000001d5048f8180] frame= 146 QP=19.67 NAL=2 Slice:P Poc:292 I:52   P:98   SKIP:8430 size=1876 bytes
[libx264 @ 000001d5048f8180] frame= 147 QP=11.00 NAL=2 Slice:P Poc:294 I:1    P:3    SKIP:8576 size=26 bytes
[libx264 @ 000001d5048f8180] frame= 148 QP=11.00 NAL=2 Slice:P Poc:296 I:0    P:0    SKIP:8580 size=12 bytes
[libx264 @ 000001d5048f8180] frame= 149 QP=12.00 NAL=2 Slice:P Poc:298 I:0    P:0    SKIP:8580 size=12 bytes
[libx264 @ 000001d5048f8180] frame= 150 QP=13.00 NAL=2 Slice:P Poc:300 I:0    P:0    SKIP:8580 size=12 bytes
[aac @ 000001d5048fa500] Trying to remove 252 more samples than there are in the queue
frame=  151 fps= 38 q=-1.0 Lsize=     764kB time=00:00:06.25 bitrate=1000.7kbits/s speed=1.57x    
[AVIOContext @ 000001d50488bc00] Statistics: 0 seeks, 8 writeouts
video:712kB audio:47kB subtitle:0kB other streams:0kB global headers:0kB muxing overhead: 0.599220%
Input file #0 (C:/Users/kand8/Documents/School 19-20/Animation/DGM2620/frame%04d.png):
  Input stream #0:0 (video): 151 packets read (39106942 bytes); 151 frames decoded; 
  Total: 151 packets (39106942 bytes) demuxed
Input file #1 (C:/Users/kand8/Documents/School 19-20/Animation/DGM2620/5 second club.wav):
  Input stream #1:0 (audio): 119 packets read (484872 bytes); 119 frames decoded (242436 samples); 
  Total: 119 packets (484872 bytes) demuxed
Output file #0 (C:/Users/kand8/Documents/School 19-20/Animation/DGM2620/5 seconds.mp4):
  Output stream #0:0 (video): 151 frames encoded; 151 packets muxed (729102 bytes); 
  Output stream #0:1 (audio): 237 frames encoded (242436 samples); 238 packets muxed (48075 bytes); 
  Total: 389 packets (777177 bytes) muxed
270 frames successfully decoded, 0 decoding errors
[AVIOContext @ 000001d505b739c0] Statistics: 2 seeks, 6 writeouts
[libx264 @ 000001d5048f8180] frame I:1     Avg QP:14.34  size: 60937
[libx264 @ 000001d5048f8180] frame P:150   Avg QP:14.03  size:  4450
[libx264 @ 000001d5048f8180] mb I  I16..4: 78.3%  0.0% 21.7%
[libx264 @ 000001d5048f8180] mb P  I16..4:  0.9%  0.0%  1.9%  P16..4:  0.7%  0.5%  0.1%  0.0%  0.0%    skip:95.9%
[libx264 @ 000001d5048f8180] coded y,uvDC,uvAC intra: 43.3% 0.1% 0.1% inter: 0.4% 0.0% 0.0%
[libx264 @ 000001d5048f8180] i16 v,h,dc,p: 84% 13%  3%  0%
[libx264 @ 000001d5048f8180] i4 v,h,dc,ddl,ddr,vr,hd,vl,hu: 19% 16% 20%  7%  8% 10%  7%  6%  7%
[libx264 @ 000001d5048f8180] i8c dc,h,v,p: 99%  1%  0%  0%
[libx264 @ 000001d5048f8180] ref P L0: 64.9% 19.9% 15.2%
[libx264 @ 000001d5048f8180] kb/s:926.27
[aac @ 000001d5048fa500] Qavg: 120.693
[AVIOContext @ 000001d504900400] Statistics: 812720 bytes read, 4 seeks
